<svg width="348" height="150" viewBox="0 0 348 150" fill="none" xmlns="http://www.w3.org/2000/svg">
<g clip-path="url(#clip0_520_6263)">
<path d="M177.069 55.1518V73.5097H190.847C193.994 73.5097 196.444 72.7214 198.192 71.1488C199.943 69.5761 200.817 67.4152 200.817 64.6739V64.066C200.817 61.2737 199.967 59.0893 198.266 57.5167C196.565 55.944 194.092 55.1558 190.844 55.1558H177.065L177.069 55.1518ZM176.085 101.695H170.598C170.054 101.695 169.611 101.252 169.611 100.707V49.3594C169.611 48.8143 170.054 48.3711 170.598 48.3711H191.612C194.958 48.3711 197.878 48.9437 200.367 50.0849C202.851 51.2261 204.807 52.8655 206.229 54.9989C207.648 57.1323 208.361 59.6697 208.361 62.615V63.4542C208.361 66.8074 207.55 69.4977 205.924 71.5292C204.297 73.5606 202.346 74.9568 200.065 75.7176V76.9373C201.942 76.9883 203.462 77.6118 204.63 78.8041C205.798 79.9963 206.382 81.7101 206.382 83.9455V100.707C206.382 101.252 205.939 101.695 205.394 101.695H199.908C199.363 101.695 198.92 101.252 198.92 100.707V84.9377C198.92 83.518 198.54 82.4003 197.78 81.5846C197.02 80.7728 195.828 80.3649 194.202 80.3649H177.076V100.707C177.076 101.252 176.634 101.695 176.089 101.695" fill="white"/>
<path d="M234.539 53.0184L226.168 81.8905H244.054L235.68 53.0184H234.539ZM219.867 101.695H214.161C213.502 101.695 213.028 101.064 213.216 100.429L228.316 49.0809C228.437 48.6613 228.825 48.3711 229.26 48.3711H240.954C241.393 48.3711 241.777 48.6574 241.899 49.0809L256.999 100.429C257.183 101.06 256.712 101.695 256.054 101.695H250.348C249.909 101.695 249.521 101.405 249.4 100.982L245.877 88.7458H224.334L220.811 100.982C220.69 101.405 220.302 101.695 219.863 101.695" fill="white"/>
<path d="M281.959 102.762C275.512 102.762 270.402 100.923 266.62 97.2404C262.838 93.5578 260.949 88.2399 260.949 81.2827V68.7879C260.949 61.8307 262.838 56.5128 266.62 52.8302C270.402 49.1477 275.512 47.3083 281.959 47.3083C288.405 47.3083 293.261 49.0732 296.686 52.6027C300.111 56.1323 301.824 60.9718 301.824 67.1133V67.7682C301.824 68.3134 301.381 68.7565 300.836 68.7565H295.346C294.801 68.7565 294.362 68.3134 294.362 67.7682V66.8858C294.362 63.1288 293.347 60.0423 291.317 57.6305C289.287 55.2186 286.167 54.0146 281.955 54.0146C277.742 54.0146 274.43 55.3088 272.02 57.8971C269.61 60.4894 268.407 64.0661 268.407 68.6389V81.4356C268.407 85.9574 269.61 89.5223 272.02 92.1381C274.43 94.754 277.742 96.0599 281.955 96.0599C286.167 96.0599 289.287 94.8559 291.317 92.4401C293.347 90.0282 294.362 86.9418 294.362 83.1847V82.2474C294.362 81.7023 294.805 81.2591 295.346 81.2591H300.836C301.381 81.2591 301.824 81.7023 301.824 82.2474V82.9573C301.824 89.1027 300.111 93.9382 296.686 97.4678C293.261 100.997 288.35 102.762 281.959 102.762Z" fill="white"/>
<path d="M328.589 102.762C324.631 102.762 321.116 102.048 318.047 100.629C314.979 99.2091 312.569 97.1267 310.817 94.3814C309.065 91.6401 308.191 88.236 308.191 84.173V82.2474C308.191 81.7023 308.634 81.2592 309.179 81.2592H314.591C315.136 81.2592 315.579 81.7023 315.579 82.2474V84.173C315.579 88.236 316.782 91.2558 319.196 93.2363C321.606 95.2168 324.737 96.209 328.597 96.209C332.457 96.209 335.487 95.3462 337.54 93.6167C339.594 91.8911 340.624 89.7067 340.624 87.0673C340.624 85.2907 340.154 83.8436 339.218 82.7259C338.277 81.6082 336.945 80.7062 335.22 80.0238C333.496 79.3375 331.438 78.7178 329.056 78.157L325.783 77.3962C322.484 76.5844 319.619 75.5804 317.181 74.3882C314.748 73.196 312.843 71.6351 311.472 69.7017C310.1 67.7722 309.418 65.2583 309.418 62.1601C309.418 59.0619 310.178 56.4736 311.703 54.2381C313.223 52.0027 315.355 50.2889 318.098 49.0967C320.838 47.9045 324.036 47.3044 327.688 47.3044C331.34 47.3044 334.613 47.9398 337.509 49.2065C340.401 50.4772 342.686 52.3439 344.359 54.8068C346.033 57.2697 346.871 60.3561 346.871 64.0622V65.9721C346.871 66.5172 346.428 66.9604 345.884 66.9604H340.472C339.927 66.9604 339.484 66.5172 339.484 65.9721V64.0622C339.484 61.6228 338.975 59.6698 337.96 58.1952C336.945 56.7245 335.549 55.6304 333.774 54.9205C331.995 54.2107 329.969 53.8538 327.684 53.8538C324.333 53.8538 321.696 54.5676 319.768 55.9872C317.84 57.4109 316.876 59.4149 316.876 62.0033C316.876 63.7288 317.295 65.1407 318.13 66.2309C318.968 67.3212 320.172 68.2114 321.747 68.8977C323.318 69.584 325.25 70.1801 327.531 70.69L330.804 71.5292C334.099 72.2391 337.046 73.1921 339.633 74.3843C342.223 75.5765 344.265 77.1648 345.762 79.1453C347.259 81.1258 348.008 83.7181 348.008 86.9144C348.008 90.1106 347.208 92.8323 345.609 95.2167C344.01 97.6051 341.765 99.4562 338.873 100.778C335.98 102.099 332.555 102.758 328.597 102.758" fill="white"/>
<path d="M74.2557 88.9419L61.0215 75.6981C60.6374 75.3137 60.6374 74.6902 61.0215 74.3019L74.2557 61.0581C74.6397 60.6738 75.2668 60.6738 75.6508 61.0581L88.885 74.3019C89.2691 74.6863 89.2691 75.3137 88.885 75.6981L75.6508 88.9419C75.2668 89.3262 74.6437 89.3262 74.2557 88.9419ZM96.4955 70.7684L79.1818 53.442C78.9976 53.2577 78.8918 53.0067 78.8918 52.7439V0.988287C78.8918 0.44316 78.4489 0 77.9042 0H71.9905C71.4458 0 71.003 0.44316 71.003 0.988287V52.7557C71.003 53.0185 70.8972 53.2695 70.713 53.4538L53.4109 70.7684C53.2268 70.9527 52.9759 71.0586 52.7134 71.0586H0.987568C0.442838 71.0586 0 71.5018 0 72.043V77.9609C0 78.5061 0.442838 78.9492 0.987568 78.9492H52.7251C52.9877 78.9492 53.2385 79.0551 53.4227 79.2394L70.7247 96.5658C70.9089 96.7502 71.0147 97.0011 71.0147 97.2639V149.02C71.0147 149.565 71.4576 150.008 72.0023 150.008H77.916C78.4607 150.008 78.9035 149.565 78.9035 149.02V97.2718C78.9035 97.009 79.0054 96.758 79.1935 96.5737L96.5073 79.2394C96.6915 79.0551 96.9423 78.9492 97.2049 78.9492H148.923C149.468 78.9492 149.91 78.5061 149.91 77.9609V72.043C149.91 71.4979 149.468 71.0586 148.923 71.0586H97.2049C96.9423 71.0586 96.6915 70.9567 96.5073 70.7684" fill="white"/>
<path d="M102.621 55.2735H125.256C125.801 55.2735 126.244 55.7167 126.244 56.2618V62.1798C126.244 62.7249 125.801 63.1641 125.256 63.1641H100.461C100.199 63.1641 99.9479 63.0622 99.7637 62.8739L87.0625 50.1674C86.8783 49.9831 86.7725 49.7321 86.7725 49.4693V24.6602C86.7725 24.115 87.2153 23.6719 87.76 23.6719H93.6737C94.2184 23.6719 94.6612 24.115 94.6612 24.6602V47.3084C94.6612 48.1869 95.7233 48.6261 96.3425 48.0065L119.962 24.37C120.346 23.9856 120.973 23.9856 121.357 24.37L125.542 28.5584C125.926 28.9427 125.926 29.5663 125.542 29.9546L101.923 53.5911C101.304 54.2146 101.743 55.2735 102.621 55.2735Z" fill="white"/>
<path d="M47.2775 55.2735H24.6419C24.0971 55.2735 23.6543 55.7167 23.6543 56.2618V62.1798C23.6543 62.7249 24.0971 63.1641 24.6419 63.1641H49.4369C49.6994 63.1641 49.9502 63.0622 50.1344 62.8739L62.8356 50.1674C63.0198 49.9831 63.1256 49.7321 63.1256 49.4693V24.6602C63.1256 24.115 62.6828 23.6719 62.1381 23.6719H56.2244C55.6797 23.6719 55.2369 24.115 55.2369 24.6602V47.3084C55.2369 48.1869 54.1748 48.6261 53.5556 48.0065L29.9363 24.37C29.5523 23.9856 28.9252 23.9856 28.5412 24.37L24.3558 28.5584C23.9717 28.9427 23.9717 29.5663 24.3558 29.9546L47.9751 53.5911C48.5943 54.2146 48.1554 55.2735 47.2775 55.2735Z" fill="white"/>
<path d="M47.2775 94.7266H24.6419C24.0971 94.7266 23.6543 94.2834 23.6543 93.7383V87.8203C23.6543 87.2752 24.0971 86.832 24.6419 86.832H49.4369C49.6994 86.832 49.9502 86.9379 50.1344 87.1222L62.8356 99.8288C63.0198 100.013 63.1256 100.264 63.1256 100.527V125.336C63.1256 125.881 62.6828 126.32 62.1381 126.32H56.2244C55.6797 126.32 55.2369 125.881 55.2369 125.336V102.688C55.2369 101.809 54.1748 101.37 53.5556 101.99L29.9363 125.626C29.5523 126.011 28.9252 126.011 28.5412 125.626L24.3558 121.438C23.9717 121.053 23.9717 120.43 24.3558 120.042L47.9751 96.4051C48.5943 95.7854 48.1554 94.7226 47.2775 94.7226" fill="white"/>
<path d="M102.621 94.7266H125.256C125.801 94.7266 126.244 94.2834 126.244 93.7383V87.8203C126.244 87.2752 125.801 86.832 125.256 86.832H100.461C100.199 86.832 99.9479 86.9379 99.7637 87.1222L87.0625 99.8288C86.8783 100.013 86.7725 100.264 86.7725 100.527V125.336C86.7725 125.881 87.2153 126.32 87.76 126.32H93.6737C94.2184 126.32 94.6612 125.881 94.6612 125.336V102.688C94.6612 101.809 95.7233 101.37 96.3425 101.99L119.962 125.626C120.346 126.011 120.973 126.011 121.357 125.626L125.542 121.438C125.926 121.053 125.926 120.43 125.542 120.042L101.923 96.4051C101.304 95.7854 101.743 94.7226 102.621 94.7226" fill="white"/>
</g>
<defs>
<clipPath id="clip0_520_6263">
<rect width="348" height="150" fill="white"/>
</clipPath>
</defs>
</svg>
