<svg xmlns="http://www.w3.org/2000/svg" width="133" height="135" viewBox="0 0 133 135" fill="none">
  <foreignObject x="0.00156212" y="9.72748e-05" width="132.2" height="134.2"><div xmlns="http://www.w3.org/1999/xhtml" style="backdrop-filter:blur(2.6px);clip-path:url(#bgblur_0_152_2075_clip_path);height:100%;width:100%"></div></foreignObject><g filter="url(#filter0_dii_152_2075)" data-figma-bg-blur-radius="5.2">
    <path d="M16.6989 31.2808C15.2649 31.2808 14.1016 30.0949 14.1016 28.6332V12.7477C14.1016 11.286 15.2649 10.1001 16.6989 10.1001H82.037C82.727 10.1001 83.3898 10.3828 83.8768 10.8792L117.344 44.9945C117.831 45.4909 118.102 46.1666 118.102 46.8629V113.453C118.102 114.914 116.938 116.1 115.504 116.1H99.9205C98.4866 116.1 97.3232 114.914 97.3232 113.453V52.6614C97.3232 50.3034 94.523 49.1175 92.8862 50.7929L30.6458 114.238C29.6312 115.273 27.9876 115.273 26.9731 114.238L15.9481 103C14.9335 101.966 14.9335 100.29 15.9481 99.2562L78.1885 35.8106C79.8253 34.1421 78.6687 31.2877 76.3487 31.2877" fill="#95A6FF" fill-opacity="0.22" shape-rendering="crispEdges"/>
  </g>
  <defs>
    <filter id="filter0_dii_152_2075" x="0.00156212" y="9.72748e-05" width="132.2" height="134.2" filterUnits="userSpaceOnUse" color-interpolation-filters="sRGB">
      <feFlood flood-opacity="0" result="BackgroundImageFix"/>
      <feColorMatrix in="SourceAlpha" type="matrix" values="0 0 0 0 0 0 0 0 0 0 0 0 0 0 0 0 0 0 127 0" result="hardAlpha"/>
      <feOffset dy="4"/>
      <feGaussianBlur stdDeviation="7.05"/>
      <feComposite in2="hardAlpha" operator="out"/>
      <feColorMatrix type="matrix" values="0 0 0 0 0 0 0 0 0 0 0 0 0 0 0 0 0 0 0.09 0"/>
      <feBlend mode="normal" in2="BackgroundImageFix" result="effect1_dropShadow_152_2075"/>
      <feBlend mode="normal" in="SourceGraphic" in2="effect1_dropShadow_152_2075" result="shape"/>
      <feColorMatrix in="SourceAlpha" type="matrix" values="0 0 0 0 0 0 0 0 0 0 0 0 0 0 0 0 0 0 127 0" result="hardAlpha"/>
      <feOffset dy="4"/>
      <feGaussianBlur stdDeviation="4.9"/>
      <feComposite in2="hardAlpha" operator="arithmetic" k2="-1" k3="1"/>
      <feColorMatrix type="matrix" values="0 0 0 0 1 0 0 0 0 1 0 0 0 0 1 0 0 0 0.49 0"/>
      <feBlend mode="normal" in2="shape" result="effect2_innerShadow_152_2075"/>
      <feColorMatrix in="SourceAlpha" type="matrix" values="0 0 0 0 0 0 0 0 0 0 0 0 0 0 0 0 0 0 127 0" result="hardAlpha"/>
      <feOffset dy="1"/>
      <feGaussianBlur stdDeviation="1"/>
      <feComposite in2="hardAlpha" operator="arithmetic" k2="-1" k3="1"/>
      <feColorMatrix type="matrix" values="0 0 0 0 1 0 0 0 0 1 0 0 0 0 1 0 0 0 0.9 0"/>
      <feBlend mode="normal" in2="effect2_innerShadow_152_2075" result="effect3_innerShadow_152_2075"/>
    </filter>
    <clipPath id="bgblur_0_152_2075_clip_path" transform="translate(-0.00156212 -9.72748e-05)"><path d="M16.6989 31.2808C15.2649 31.2808 14.1016 30.0949 14.1016 28.6332V12.7477C14.1016 11.286 15.2649 10.1001 16.6989 10.1001H82.037C82.727 10.1001 83.3898 10.3828 83.8768 10.8792L117.344 44.9945C117.831 45.4909 118.102 46.1666 118.102 46.8629V113.453C118.102 114.914 116.938 116.1 115.504 116.1H99.9205C98.4866 116.1 97.3232 114.914 97.3232 113.453V52.6614C97.3232 50.3034 94.523 49.1175 92.8862 50.7929L30.6458 114.238C29.6312 115.273 27.9876 115.273 26.9731 114.238L15.9481 103C14.9335 101.966 14.9335 100.29 15.9481 99.2562L78.1885 35.8106C79.8253 34.1421 78.6687 31.2877 76.3487 31.2877"/>
  </clipPath></defs>
</svg>