<svg xmlns="http://www.w3.org/2000/svg" width="105" height="138" viewBox="0 0 105 138" fill="none">
  <g clipPath="url(#clip0_411_1195)">
    <path d="M4.39112 110.148V120.887H12.501C14.3523 120.887 15.7937 120.427 16.8253 119.506C17.8546 118.585 18.3704 117.323 18.3704 115.718V115.36C18.3704 113.727 17.8707 112.449 16.8691 111.529C15.8674 110.608 14.4122 110.148 12.501 110.148H4.39112ZM3.94671 137.377H0.444408C0.198026 137.377 0 137.18 0 136.935V106.625C0 106.38 0.200329 106.183 0.444408 106.183H12.9477C14.9187 106.183 16.6365 106.517 18.101 107.186C19.5655 107.855 20.7145 108.812 21.5503 110.061C22.3862 111.309 22.8053 112.795 22.8053 114.518V115.008C22.8053 116.968 22.3263 118.544 21.3707 119.733C20.4151 120.921 19.2661 121.739 17.9214 122.183V122.895C19.0266 122.925 19.9224 123.289 20.6086 123.988C21.2947 124.686 21.6401 125.69 21.6401 126.995V136.935C21.6401 137.18 21.4421 137.377 21.1957 137.377H17.6934C17.447 137.377 17.249 137.18 17.249 136.935V127.572C17.249 126.741 17.0257 126.086 16.5766 125.612C16.1276 125.138 15.4276 124.899 14.4697 124.899H4.39112V136.935C4.39112 137.18 4.19309 137.377 3.94671 137.377Z" fill="white"/>
    <path d="M38.2168 108.902L33.2891 125.79H43.8168L38.8891 108.902H38.2168ZM29.6832 137.377H26.0428C25.7457 137.377 25.5339 137.093 25.6168 136.809L34.5855 106.499C34.6408 106.311 34.8135 106.183 35.0115 106.183H42.099C42.2947 106.183 42.4697 106.311 42.525 106.499L51.4937 136.809C51.5766 137.093 51.3648 137.377 51.0678 137.377H47.425C47.227 137.377 47.052 137.247 46.999 137.056L44.8967 129.801H32.2184L30.1161 137.056C30.0609 137.247 29.8882 137.377 29.6901 137.377" fill="white"/>
    <path d="M66.1293 138C62.3345 138 59.325 136.923 57.1007 134.768C54.8763 132.615 53.7618 129.503 53.7618 125.433V118.125C53.7618 114.055 54.874 110.942 57.1007 108.789C59.325 106.636 62.3345 105.558 66.1293 105.558C69.924 105.558 72.7816 106.591 74.7987 108.654C76.8158 110.72 77.8243 113.548 77.8243 117.144V117.662C77.8243 117.907 77.6263 118.104 77.3799 118.104H73.8776C73.6312 118.104 73.4332 117.907 73.4332 117.662V117.011C73.4332 114.813 72.8345 113.008 71.6418 111.597C70.4467 110.186 68.6092 109.481 66.1316 109.481C63.6539 109.481 61.7036 110.239 60.2852 111.753C58.8668 113.269 58.1576 115.362 58.1576 118.035V125.522C58.1576 128.167 58.8668 130.254 60.2852 131.784C61.7036 133.314 63.6516 134.079 66.1316 134.079C68.6115 134.079 70.4467 133.373 71.6418 131.963C72.8368 130.552 73.4332 128.747 73.4332 126.548V125.866C73.4332 125.621 73.6312 125.424 73.8776 125.424H77.3799C77.6263 125.424 77.8243 125.621 77.8243 125.866V126.415C77.8243 130.011 76.8158 132.84 74.7987 134.906C72.7816 136.971 69.8918 138.002 66.1293 138.002" fill="white"/>
    <path d="M93.5743 138C91.2441 138 89.1763 137.583 87.3688 136.752C85.5612 135.92 84.1428 134.702 83.1135 133.096C82.0842 131.493 81.5684 129.503 81.5684 127.126V125.864C81.5684 125.619 81.7665 125.422 82.0128 125.422H85.4691C85.7155 125.422 85.9135 125.619 85.9135 125.864V127.126C85.9135 129.503 86.6227 131.271 88.0411 132.428C89.4595 133.587 91.304 134.166 93.5743 134.166C95.8447 134.166 97.6293 133.662 98.8382 132.65C100.047 131.64 100.653 130.362 100.653 128.818C100.653 127.778 100.376 126.931 99.8237 126.278C99.2711 125.625 98.4882 125.096 97.4727 124.696C96.4572 124.295 95.2484 123.931 93.8437 123.603L91.9164 123.156C89.9753 122.682 88.2875 122.094 86.8553 121.395C85.4207 120.697 84.3016 119.783 83.4957 118.654C82.6898 117.525 82.2868 116.054 82.2868 114.243C82.2868 112.431 82.7359 110.915 83.6316 109.607C84.5273 108.299 85.7822 107.298 87.3941 106.6C89.0082 105.901 90.8895 105.553 93.0401 105.553C95.1908 105.553 97.1181 105.924 98.8197 106.666C100.521 107.408 101.866 108.501 102.852 109.941C103.837 111.382 104.33 113.187 104.33 115.356V116.606C104.33 116.851 104.132 117.048 103.886 117.048H100.429C100.183 117.048 99.9849 116.849 99.9849 116.606V115.356C99.9849 113.929 99.6855 112.786 99.0891 111.925C98.4928 111.064 97.6707 110.425 96.6253 110.008C95.5799 109.591 94.3849 109.385 93.0401 109.385C91.0691 109.385 89.5148 109.802 88.3796 110.633C87.2444 111.464 86.6757 112.639 86.6757 114.153C86.6757 115.163 86.922 115.988 87.4148 116.627C87.9076 117.266 88.6168 117.786 89.5424 118.187C90.4681 118.587 91.6033 118.938 92.948 119.233L94.8753 119.723C96.8164 120.14 98.548 120.697 100.072 121.395C101.597 122.094 102.796 123.021 103.678 124.18C104.56 125.339 105 126.855 105 128.727C105 130.598 104.53 132.187 103.588 133.584C102.647 134.981 101.325 136.065 99.6234 136.836C97.9217 137.608 95.9046 137.995 93.5743 137.995" fill="white"/>
    <path d="M52.5 55.7895L43.0753 46.413L52.5 37.0365L61.927 46.413L52.5 55.7895ZM65.9934 44.2029L54.722 32.9918V0.442029C54.722 0.196966 54.524 0 54.2776 0H50.7224C50.476 0 50.278 0.196966 50.278 0.442029V32.9941L39.0089 44.2052H6.28158C6.0352 44.2052 5.83717 44.4021 5.83717 44.6472V48.1834C5.83717 48.4285 6.0352 48.6255 6.28158 48.6255H39.0089L50.278 59.8365V92.3886C50.278 92.6337 50.476 92.8306 50.7224 92.8306H54.2776C54.524 92.8306 54.722 92.6337 54.722 92.3886V59.8365L65.9934 48.6255H98.7207C98.9671 48.6255 99.1651 48.4285 99.1651 48.1834V44.6472C99.1651 44.4021 98.9671 44.2052 98.7207 44.2052H65.9934V44.2029Z" fill="white"/>
    <path d="M69.673 35.3622H85.3862C85.6326 35.3622 85.8306 35.5591 85.8306 35.8042V39.3404C85.8306 39.5855 85.6326 39.7825 85.3862 39.7825H68.0151C67.8977 39.7825 67.7849 39.7367 67.702 39.6542L59.2974 31.2969C59.2145 31.2144 59.1661 31.1022 59.1661 30.9831V13.7028C59.1661 13.4577 59.3641 13.2607 59.6105 13.2607H63.1658C63.4122 13.2607 63.6102 13.4577 63.6102 13.7028V29.3387L65.0678 30.7884L82.3743 13.5745C82.547 13.4027 82.8303 13.4027 83.003 13.5745L85.5174 16.0755C85.6901 16.2473 85.6901 16.529 85.5174 16.7008L68.2109 33.9147L69.673 35.3645V35.3622Z" fill="white"/>
    <path d="M41.3898 29.3341V13.7028C41.3898 13.4577 41.5878 13.2607 41.8342 13.2607H45.3895C45.6359 13.2607 45.8339 13.4577 45.8339 13.7028V30.9808C45.8339 31.0976 45.7878 31.2099 45.7049 31.2946L37.3026 39.6542C37.2197 39.7367 37.1069 39.7848 36.9872 39.7848H19.6115C19.3651 39.7848 19.1671 39.5878 19.1671 39.3427V35.8065C19.1671 35.5614 19.3651 35.3645 19.6115 35.3645H35.3316L36.7891 33.9147L19.4826 16.7008C19.3099 16.529 19.3099 16.2473 19.4826 16.0755L21.997 13.5745C22.1697 13.4027 22.4507 13.4027 22.6257 13.5745L39.9322 30.7884L41.3898 29.3341Z" fill="white"/>
    <path d="M35.327 57.4662H19.6115C19.3651 57.4662 19.1671 57.2692 19.1671 57.0242V53.4879C19.1671 53.2429 19.3651 53.0459 19.6115 53.0459H36.9826C37.1 53.0459 37.2128 53.0917 37.2957 53.1764L45.7026 61.5338C45.7855 61.6162 45.8339 61.7284 45.8339 61.8475V79.1302C45.8339 79.3752 45.6359 79.5722 45.3895 79.5722H41.8342C41.5878 79.5722 41.3898 79.3752 41.3898 79.1302V63.4966L39.9322 62.0468L22.6257 79.2607C22.453 79.4325 22.1697 79.4325 21.997 79.2607L19.4826 76.7597C19.3099 76.5879 19.3099 76.3062 19.4826 76.1345L36.7891 58.9205L35.327 57.4708V57.4662Z" fill="white"/>
    <path d="M63.6102 63.4941V79.1254C63.6102 79.3705 63.4122 79.5675 63.1658 79.5675H59.6105C59.3641 79.5675 59.1661 79.3705 59.1661 79.1254V61.8474C59.1661 61.7306 59.2122 61.6184 59.2974 61.5359L67.6997 53.174C67.7826 53.0916 67.8954 53.0435 68.0151 53.0435H85.3908C85.6372 53.0435 85.8352 53.2404 85.8352 53.4855V57.0217C85.8352 57.2668 85.6372 57.4637 85.3908 57.4637H69.6707L68.2132 58.9135L85.5197 76.1274C85.6924 76.2992 85.6924 76.5809 85.5197 76.7527L83.0053 79.2537C82.8326 79.4255 82.5493 79.4255 82.3766 79.2537L65.0701 62.0398L63.6125 63.4941H63.6102Z" fill="white"/>
  </g>
  <defs>
    <clipPath id="clip0_411_1195">
      <rect width="105" height="138" fill="white"/>
    </clipPath>
  </defs>
</svg>
