<svg width="716" height="771" viewBox="0 0 716 771" fill="none" xmlns="http://www.w3.org/2000/svg">
<g clip-path="url(#clip0_447_678)">
<g opacity="0.43">
<g filter="url(#filter0_f_447_678)">
<circle cx="836.672" cy="-117.189" r="183.444" fill="url(#paint0_radial_447_678)"/>
</g>
</g>
<g filter="url(#filter1_f_447_678)">
<path d="M568.613 294.914L475.133 201.414C472.413 198.694 472.413 194.288 475.133 191.568L568.613 98.0677C571.333 95.3475 575.74 95.3475 578.46 98.0677L671.958 191.568C674.678 194.288 674.678 198.694 671.958 201.414L578.46 294.914C575.74 297.634 571.333 297.634 568.613 294.914ZM725.743 166.615L603.43 44.2998C602.124 42.9941 601.399 41.217 601.399 39.3855V-326.036C601.399 -329.881 598.28 -333 594.436 -333H552.655C548.811 -333 545.692 -329.881 545.692 -326.036V39.4398C545.692 41.2895 544.966 43.0485 543.661 44.3723L421.42 166.615C420.115 167.921 418.338 168.646 416.488 168.646H50.9634C47.119 168.646 44 171.765 44 175.609V217.391C44 221.235 47.119 224.354 50.9634 224.354H416.47C418.319 224.354 420.078 225.098 421.402 226.403L543.643 348.718C544.948 350.024 545.674 351.801 545.674 353.633V719.036C545.674 722.881 548.793 726 552.637 726H594.417C598.262 726 601.381 722.881 601.381 719.036V353.705C601.381 351.856 602.106 350.097 603.412 348.791L725.725 226.403C727.03 225.098 728.808 224.354 730.657 224.354H1096.04C1099.88 224.354 1103 221.235 1103 217.391V175.609C1103 171.765 1099.88 168.646 1096.04 168.646H730.657C728.808 168.646 727.049 167.921 725.743 166.615Z" fill="url(#paint1_linear_447_678)"/>
<path d="M769.01 57.212H928.933C932.777 57.212 935.896 60.3311 935.896 64.1756V105.957C935.896 109.801 932.777 112.92 928.933 112.92H753.76C751.91 112.92 750.151 112.195 748.845 110.871L659.119 21.1431C657.813 19.8375 657.088 18.0604 657.088 16.2107V-158.929C657.088 -162.774 660.207 -165.893 664.051 -165.893H705.832C709.676 -165.893 712.795 -162.774 712.795 -158.929V0.959839C712.795 7.16173 720.303 10.2627 724.691 5.89233L891.559 -160.978C894.279 -163.699 898.685 -163.699 901.406 -160.978L930.982 -131.42C933.702 -128.7 933.702 -124.293 930.982 -121.573L764.114 45.2979C759.725 49.6864 762.826 57.1939 769.028 57.1939" fill="url(#paint2_linear_447_678)"/>
<path d="M378.008 57.212H218.085C214.241 57.212 211.122 60.3311 211.122 64.1756V105.957C211.122 109.801 214.241 112.92 218.085 112.92H393.259C395.108 112.92 396.885 112.195 398.191 110.871L487.917 21.1431C489.223 19.8375 489.948 18.0604 489.948 16.2107V-158.929C489.948 -162.774 486.829 -165.893 482.985 -165.893H441.205C437.36 -165.893 434.241 -162.774 434.241 -158.929V0.959839C434.241 7.16173 426.734 10.2627 422.345 5.89233L255.478 -160.978C252.757 -163.699 248.351 -163.699 245.631 -160.978L216.073 -131.42C213.353 -128.7 213.353 -124.293 216.073 -121.573L382.94 45.2979C387.329 49.6864 384.228 57.1939 378.008 57.1939" fill="url(#paint3_linear_447_678)"/>
<path d="M378.008 335.771H218.085C214.241 335.771 211.122 332.652 211.122 328.808V287.026C211.122 283.182 214.241 280.063 218.085 280.063H393.259C395.108 280.063 396.885 280.806 398.191 282.112L487.917 371.84C489.223 373.146 489.948 374.923 489.948 376.754V551.894C489.948 555.739 486.829 558.858 482.985 558.858H441.205C437.36 558.858 434.241 555.739 434.241 551.894V392.005C434.241 385.803 426.734 382.684 422.345 387.091L255.478 553.962C252.757 556.682 248.351 556.682 245.631 553.962L216.073 524.403C213.353 521.683 213.353 517.276 216.073 514.556L382.94 347.685C387.329 343.297 384.228 335.789 378.008 335.789" fill="url(#paint4_linear_447_678)"/>
<path d="M769.01 335.771H928.933C932.777 335.771 935.896 332.652 935.896 328.808V287.026C935.896 283.182 932.777 280.063 928.933 280.063H753.76C751.91 280.063 750.151 280.806 748.845 282.112L659.119 371.84C657.813 373.146 657.088 374.923 657.088 376.754V551.894C657.088 555.739 660.207 558.858 664.051 558.858H705.832C709.676 558.858 712.795 555.739 712.795 551.894V392.005C712.795 385.803 720.303 382.684 724.691 387.091L891.559 553.962C894.279 556.682 898.685 556.682 901.406 553.962L930.982 524.403C933.702 521.683 933.702 517.276 930.982 514.556L764.114 347.685C759.725 343.297 762.826 335.789 769.028 335.789" fill="url(#paint5_linear_447_678)"/>
</g>
</g>
<defs>
<filter id="filter0_f_447_678" x="510.128" y="-443.733" width="653.088" height="653.088" filterUnits="userSpaceOnUse" color-interpolation-filters="sRGB">
<feFlood flood-opacity="0" result="BackgroundImageFix"/>
<feBlend mode="normal" in="SourceGraphic" in2="BackgroundImageFix" result="shape"/>
<feGaussianBlur stdDeviation="71.55" result="effect1_foregroundBlur_447_678"/>
</filter>
<filter id="filter1_f_447_678" x="17.9" y="-359.1" width="1111.2" height="1111.2" filterUnits="userSpaceOnUse" color-interpolation-filters="sRGB">
<feFlood flood-opacity="0" result="BackgroundImageFix"/>
<feBlend mode="normal" in="SourceGraphic" in2="BackgroundImageFix" result="shape"/>
<feGaussianBlur stdDeviation="13.05" result="effect1_foregroundBlur_447_678"/>
</filter>
<radialGradient id="paint0_radial_447_678" cx="0" cy="0" r="1" gradientUnits="userSpaceOnUse" gradientTransform="translate(836.672 -117.189) rotate(90) scale(183.444)">
<stop stop-color="#3455B0"/>
<stop offset="1" stop-color="#3455B0" stop-opacity="0"/>
</radialGradient>
<linearGradient id="paint1_linear_447_678" x1="597.5" y1="-550.5" x2="574" y2="1867.5" gradientUnits="userSpaceOnUse">
<stop offset="0.201097" stop-color="#ABBBE8" stop-opacity="0.33"/>
<stop offset="0.438778" stop-color="#F4F7FE"/>
<stop offset="0.619221" stop-color="#F4F7FE"/>
<stop offset="1" stop-color="#ABBBE8"/>
</linearGradient>
<linearGradient id="paint2_linear_447_678" x1="597.5" y1="-550.5" x2="574" y2="1867.5" gradientUnits="userSpaceOnUse">
<stop offset="0.201097" stop-color="#ABBBE8" stop-opacity="0.33"/>
<stop offset="0.438778" stop-color="#F4F7FE"/>
<stop offset="0.619221" stop-color="#F4F7FE"/>
<stop offset="1" stop-color="#ABBBE8"/>
</linearGradient>
<linearGradient id="paint3_linear_447_678" x1="597.5" y1="-550.5" x2="574" y2="1867.5" gradientUnits="userSpaceOnUse">
<stop offset="0.201097" stop-color="#ABBBE8" stop-opacity="0.33"/>
<stop offset="0.438778" stop-color="#F4F7FE"/>
<stop offset="0.619221" stop-color="#F4F7FE"/>
<stop offset="1" stop-color="#ABBBE8"/>
</linearGradient>
<linearGradient id="paint4_linear_447_678" x1="597.5" y1="-550.5" x2="574" y2="1867.5" gradientUnits="userSpaceOnUse">
<stop offset="0.201097" stop-color="#ABBBE8" stop-opacity="0.33"/>
<stop offset="0.438778" stop-color="#F4F7FE"/>
<stop offset="0.619221" stop-color="#F4F7FE"/>
<stop offset="1" stop-color="#ABBBE8"/>
</linearGradient>
<linearGradient id="paint5_linear_447_678" x1="597.5" y1="-550.5" x2="574" y2="1867.5" gradientUnits="userSpaceOnUse">
<stop offset="0.201097" stop-color="#ABBBE8" stop-opacity="0.33"/>
<stop offset="0.438778" stop-color="#F4F7FE"/>
<stop offset="0.619221" stop-color="#F4F7FE"/>
<stop offset="1" stop-color="#ABBBE8"/>
</linearGradient>
<clipPath id="clip0_447_678">
<rect width="716" height="771" fill="white"/>
</clipPath>
</defs>
</svg>
