<svg width="1112" height="1112" viewBox="0 0 1112 1112" fill="none" xmlns="http://www.w3.org/2000/svg">
<g filter="url(#filter0_f_329_3505)">
<path d="M550.713 654.014L457.233 560.514C454.513 557.794 454.513 553.388 457.233 550.668L550.713 457.168C553.433 454.448 557.84 454.448 560.56 457.168L654.058 550.668C656.778 553.388 656.778 557.794 654.058 560.514L560.56 654.014C557.84 656.734 553.433 656.734 550.713 654.014ZM707.843 525.715L585.53 403.4C584.224 402.094 583.499 400.317 583.499 398.485V33.0635C583.499 29.2191 580.38 26.1 576.536 26.1H534.755C530.911 26.1 527.792 29.2191 527.792 33.0635V398.54C527.792 400.39 527.066 402.149 525.761 403.472L403.52 525.715C402.215 527.021 400.438 527.746 398.588 527.746H33.0635C29.2191 527.746 26.1001 530.865 26.1001 534.709V576.491C26.1001 580.335 29.2191 583.454 33.0635 583.454H398.57C400.419 583.454 402.178 584.198 403.502 585.503L525.743 707.818C527.048 709.124 527.774 710.901 527.774 712.733V1078.14C527.774 1081.98 530.893 1085.1 534.737 1085.1H576.518C580.362 1085.1 583.481 1081.98 583.481 1078.14V712.805C583.481 710.956 584.206 709.197 585.512 707.891L707.825 585.503C709.131 584.198 710.908 583.454 712.757 583.454H1078.14C1081.98 583.454 1085.1 580.335 1085.1 576.491V534.709C1085.1 530.865 1081.98 527.746 1078.14 527.746H712.757C710.908 527.746 709.149 527.021 707.843 525.715Z" fill="url(#paint0_linear_329_3505)"/>
<path d="M751.11 416.312H911.033C914.877 416.312 917.996 419.431 917.996 423.276V465.057C917.996 468.901 914.877 472.02 911.033 472.02H735.86C734.01 472.02 732.251 471.295 730.945 469.971L641.219 380.243C639.913 378.937 639.188 377.16 639.188 375.311V200.171C639.188 196.326 642.307 193.207 646.151 193.207H687.932C691.776 193.207 694.895 196.326 694.895 200.171V360.06C694.895 366.262 702.403 369.363 706.791 364.992L873.659 198.122C876.379 195.401 880.786 195.401 883.506 198.122L913.082 227.68C915.802 230.4 915.802 234.807 913.082 237.527L746.214 404.398C741.826 408.786 744.927 416.294 751.128 416.294" fill="url(#paint1_linear_329_3505)"/>
<path d="M360.108 416.312H200.186C196.341 416.312 193.222 419.431 193.222 423.276V465.057C193.222 468.901 196.341 472.02 200.186 472.02H375.359C377.208 472.02 378.986 471.295 380.291 469.971L470.018 380.243C471.323 378.937 472.049 377.16 472.049 375.311V200.171C472.049 196.326 468.93 193.207 465.085 193.207H423.305C419.46 193.207 416.341 196.326 416.341 200.171V360.06C416.341 366.262 408.834 369.363 404.445 364.992L237.578 198.122C234.858 195.401 230.451 195.401 227.731 198.122L198.173 227.68C195.453 230.4 195.453 234.807 198.173 237.527L365.041 404.398C369.429 408.786 366.328 416.294 360.108 416.294" fill="url(#paint2_linear_329_3505)"/>
<path d="M360.108 694.871H200.186C196.341 694.871 193.222 691.752 193.222 687.908V646.126C193.222 642.282 196.341 639.163 200.186 639.163H375.359C377.208 639.163 378.986 639.906 380.291 641.212L470.018 730.94C471.323 732.246 472.049 734.023 472.049 735.854V910.994C472.049 914.839 468.93 917.958 465.085 917.958H423.305C419.46 917.958 416.341 914.839 416.341 910.994V751.105C416.341 744.903 408.834 741.784 404.445 746.191L237.578 913.062C234.858 915.782 230.451 915.782 227.731 913.062L198.173 883.503C195.453 880.783 195.453 876.376 198.173 873.656L365.041 706.785C369.429 702.397 366.328 694.889 360.108 694.889" fill="url(#paint3_linear_329_3505)"/>
<path d="M751.11 694.871H911.033C914.877 694.871 917.996 691.752 917.996 687.908V646.126C917.996 642.282 914.877 639.163 911.033 639.163H735.86C734.01 639.163 732.251 639.906 730.945 641.212L641.219 730.94C639.913 732.246 639.188 734.023 639.188 735.854V910.994C639.188 914.839 642.307 917.958 646.151 917.958H687.932C691.776 917.958 694.895 914.839 694.895 910.994V751.105C694.895 744.903 702.403 741.784 706.791 746.191L873.659 913.062C876.379 915.782 880.786 915.782 883.506 913.062L913.082 883.503C915.802 880.783 915.802 876.376 913.082 873.656L746.214 706.785C741.826 702.397 744.927 694.889 751.128 694.889" fill="url(#paint4_linear_329_3505)"/>
</g>
<defs>
<filter id="filter0_f_329_3505" x="9.72748e-05" y="5.72205e-06" width="1111.2" height="1111.2" filterUnits="userSpaceOnUse" color-interpolation-filters="sRGB">
<feFlood flood-opacity="0" result="BackgroundImageFix"/>
<feBlend mode="normal" in="SourceGraphic" in2="BackgroundImageFix" result="shape"/>
<feGaussianBlur stdDeviation="13.05" result="effect1_foregroundBlur_329_3505"/>
</filter>
<linearGradient id="paint0_linear_329_3505" x1="579.6" y1="-191.4" x2="556.1" y2="2226.6" gradientUnits="userSpaceOnUse">
<stop offset="0.201097" stop-color="#ABBBE8" stop-opacity="0.33"/>
<stop offset="0.438778" stop-color="#F4F7FE"/>
<stop offset="0.619221" stop-color="#F4F7FE"/>
<stop offset="1" stop-color="#ABBBE8"/>
</linearGradient>
<linearGradient id="paint1_linear_329_3505" x1="579.6" y1="-191.4" x2="556.1" y2="2226.6" gradientUnits="userSpaceOnUse">
<stop offset="0.201097" stop-color="#ABBBE8" stop-opacity="0.33"/>
<stop offset="0.438778" stop-color="#F4F7FE"/>
<stop offset="0.619221" stop-color="#F4F7FE"/>
<stop offset="1" stop-color="#ABBBE8"/>
</linearGradient>
<linearGradient id="paint2_linear_329_3505" x1="579.6" y1="-191.4" x2="556.1" y2="2226.6" gradientUnits="userSpaceOnUse">
<stop offset="0.201097" stop-color="#ABBBE8" stop-opacity="0.33"/>
<stop offset="0.438778" stop-color="#F4F7FE"/>
<stop offset="0.619221" stop-color="#F4F7FE"/>
<stop offset="1" stop-color="#ABBBE8"/>
</linearGradient>
<linearGradient id="paint3_linear_329_3505" x1="579.6" y1="-191.4" x2="556.1" y2="2226.6" gradientUnits="userSpaceOnUse">
<stop offset="0.201097" stop-color="#ABBBE8" stop-opacity="0.33"/>
<stop offset="0.438778" stop-color="#F4F7FE"/>
<stop offset="0.619221" stop-color="#F4F7FE"/>
<stop offset="1" stop-color="#ABBBE8"/>
</linearGradient>
<linearGradient id="paint4_linear_329_3505" x1="579.6" y1="-191.4" x2="556.1" y2="2226.6" gradientUnits="userSpaceOnUse">
<stop offset="0.201097" stop-color="#ABBBE8" stop-opacity="0.33"/>
<stop offset="0.438778" stop-color="#F4F7FE"/>
<stop offset="0.619221" stop-color="#F4F7FE"/>
<stop offset="1" stop-color="#ABBBE8"/>
</linearGradient>
</defs>
</svg>
