<svg width="197" height="137" viewBox="0 0 197 137" fill="none" xmlns="http://www.w3.org/2000/svg">
<g opacity="0.05">
<path d="M0 84.1227C0 73.3446 2.07272 62.981 6.21815 53.032C10.3636 42.6684 16.3745 33.5484 24.2508 25.6721C32.5417 17.3812 42.2834 10.9558 53.4761 6.39585C64.6688 1.42131 77.3124 -0.65142 91.4068 0.177657V25.6721C74.8251 25.6721 61.1452 30.0248 50.367 38.7302C40.0034 47.4356 33.9926 58.6283 32.3344 72.3082C34.8216 71.0646 37.3089 70.2355 39.7962 69.821C42.2834 69.4065 44.5634 69.1992 46.6361 69.1992C56.5852 69.1992 64.6688 72.5155 70.8869 79.1482C77.5196 85.3664 80.836 93.0354 80.836 102.155C80.836 112.104 77.3124 120.395 70.2651 127.028C63.2179 133.246 54.3052 136.355 43.5271 136.355C29.018 136.355 18.0326 131.381 10.5709 121.432C3.52362 111.483 0 99.0463 0 84.1227Z" fill="white"/>
<path d="M104.953 84.1267C104.953 73.3485 107.026 62.9849 111.171 53.0359C115.317 42.6723 121.328 33.5523 129.204 25.676C137.495 17.3851 147.237 10.9597 158.429 6.39975C169.622 1.42522 182.265 -0.647513 196.36 0.181563V25.676C179.778 25.676 166.098 30.0287 155.32 38.7341C144.957 47.4395 138.946 58.6322 137.288 72.3121C139.775 71.0685 142.262 70.2394 144.749 69.8249C147.237 69.4104 149.517 69.2031 151.589 69.2031C161.538 69.2031 169.622 72.5194 175.84 79.1521C182.473 85.3703 185.789 93.0393 185.789 102.159C185.789 112.108 182.265 120.399 175.218 127.032C168.171 133.25 159.258 136.359 148.48 136.359C133.971 136.359 122.986 131.385 115.524 121.436C108.477 111.487 104.953 99.0502 104.953 84.1267Z" fill="white"/>
</g>
</svg>
