<svg width="197" height="137" viewBox="0 0 197 137" fill="none" xmlns="http://www.w3.org/2000/svg">
<g opacity="0.05">
<path d="M196.36 52.2366C196.36 63.0148 194.287 73.3783 190.142 83.3274C185.996 93.691 179.985 102.811 172.109 110.687C163.818 118.978 154.077 125.404 142.884 129.964C131.691 134.938 119.048 137.011 104.953 136.182L104.953 110.687C121.535 110.687 135.215 106.335 145.993 97.6292C156.357 88.9238 162.367 77.7311 164.026 64.0511C161.538 65.2948 159.051 66.1238 156.564 66.5384C154.077 66.9529 151.797 67.1602 149.724 67.1602C139.775 67.1602 131.691 63.8438 125.473 57.2112C118.84 50.993 115.524 43.324 115.524 34.204C115.524 24.255 119.048 15.9641 126.095 9.33138C133.142 3.11323 142.055 0.00417616 152.833 0.0041771C167.342 0.00417837 178.327 4.97868 185.789 14.9277C192.836 24.8768 196.36 37.3131 196.36 52.2366Z" fill="white"/>
<path d="M91.4068 52.2325C91.4068 63.0106 89.3341 73.3742 85.1887 83.3232C81.0432 93.6868 75.0324 102.807 67.156 110.683C58.8652 118.974 49.1234 125.399 37.9307 129.959C26.7381 134.934 14.0945 137.007 7.64493e-06 136.178L9.87372e-06 110.683C16.5817 110.683 30.2617 106.33 41.0398 97.625C51.4034 88.9196 57.4143 77.7269 59.0725 64.047C56.5852 65.2906 54.0979 66.1197 51.6107 66.5342C49.1234 66.9488 46.8434 67.156 44.7707 67.156C34.8217 67.156 26.7381 63.8397 20.5199 57.207C13.8872 50.9889 10.5709 43.3198 10.5709 34.1999C10.5709 24.2508 14.0945 15.9599 21.1417 9.32723C28.189 3.10908 37.1017 2.57701e-05 47.8798 2.67123e-05C62.3888 2.79807e-05 73.3742 4.97453 80.836 14.9236C87.8832 24.8726 91.4068 37.3089 91.4068 52.2325Z" fill="white"/>
</g>
</svg>
