<svg width="63" height="63" viewBox="0 0 63 63" fill="none" xmlns="http://www.w3.org/2000/svg">
<path d="M37.7074 12.5885H1.57336C0.704733 12.5885 0 11.8837 0 11.015V1.57356C0 0.704825 0.704733 0 1.57336 0H41.1532C41.5712 0 41.9727 0.168013 42.2677 0.463057L62.5411 20.7391C62.8361 21.0341 63 21.4357 63 21.8496V61.4264C63 62.2952 62.2953 63 61.4266 63H51.9865C51.1178 63 50.4131 62.2952 50.4131 61.4264V25.2959C50.4131 23.8944 48.7168 23.1896 47.7253 24.1854L10.022 61.8936C9.40739 62.5083 8.41175 62.5083 7.79715 61.8936L1.11856 55.2141C0.503965 54.5995 0.503965 53.6037 1.11856 52.989L38.8219 15.2808C39.8134 14.2891 39.1128 12.5926 37.7074 12.5926" fill="#BAC2CB" fill-opacity="0.26"/>
</svg>
