<svg width="63" height="63" viewBox="0 0 63 63" fill="none" xmlns="http://www.w3.org/2000/svg">
<path d="M37.7074 50.4115H1.57336C0.704733 50.4115 0 51.1163 0 51.985V61.4264C0 62.2952 0.704733 63 1.57336 63H41.1532C41.5712 63 41.9727 62.832 42.2677 62.5369L62.5411 42.2609C62.8361 41.9659 63 41.5643 63 41.1504V1.57357C63 0.704826 62.2953 0 61.4266 0H51.9865C51.1178 0 50.4131 0.704826 50.4131 1.57357V37.7041C50.4131 39.1056 48.7168 39.8104 47.7253 38.8146L10.022 1.10642C9.40739 0.491745 8.41175 0.491745 7.79715 1.10642L1.11856 7.78587C0.503965 8.40055 0.503965 9.39632 1.11856 10.011L38.8219 47.7192C39.8134 48.7109 39.1128 50.4074 37.7074 50.4074" fill="#BAC2CB" fill-opacity="0.26"/>
</svg>
