<svg width="611" height="611" viewBox="0 0 611 611" fill="none" xmlns="http://www.w3.org/2000/svg">
<path d="M302.68 362.281L248.746 308.335C247.177 306.766 247.177 304.224 248.746 302.654L302.68 248.709C304.25 247.139 306.792 247.139 308.362 248.709L362.306 302.654C363.876 304.224 363.876 306.766 362.306 308.335L308.362 362.281C306.792 363.85 304.25 363.85 302.68 362.281ZM393.338 288.258L322.768 217.687C322.015 216.933 321.597 215.908 321.597 214.851V4.01767C321.597 1.79958 319.797 0 317.579 0H293.473C291.255 0 289.456 1.79958 289.456 4.01767V214.883C289.456 215.95 289.037 216.965 288.284 217.729L217.756 288.258C217.003 289.011 215.978 289.429 214.91 289.429H4.0176C1.79955 289.429 0 291.229 0 293.447V317.553C0 319.771 1.79955 321.571 4.0176 321.571H214.9C215.967 321.571 216.982 322 217.746 322.753L288.273 393.324C289.027 394.077 289.445 395.102 289.445 396.159V606.982C289.445 609.2 291.245 611 293.463 611H317.569C319.787 611 321.586 609.2 321.586 606.982V396.201C321.586 395.134 322.005 394.119 322.758 393.366L393.328 322.753C394.081 322 395.106 321.571 396.173 321.571H606.982C609.201 321.571 611 319.771 611 317.553V293.447C611 291.229 609.201 289.429 606.982 289.429H396.173C395.106 289.429 394.091 289.011 393.338 288.258Z" fill="white" fill-opacity="0.11"/>
<path d="M418.301 225.137H510.57C512.788 225.137 514.588 226.936 514.588 229.154V253.26C514.588 255.478 512.788 257.278 510.57 257.278H409.502C408.435 257.278 407.42 256.859 406.667 256.096L354.899 204.326C354.145 203.573 353.727 202.548 353.727 201.48V100.432C353.727 98.2136 355.526 96.4141 357.744 96.4141H381.85C384.068 96.4141 385.868 98.2136 385.868 100.432V192.681C385.868 196.26 390.199 198.049 392.731 195.527L489.007 99.2495C490.576 97.6801 493.119 97.6801 494.688 99.2495L511.753 116.304C513.322 117.873 513.322 120.415 511.753 121.985L415.477 218.263C412.945 220.794 414.734 225.126 418.312 225.126" fill="white" fill-opacity="0.11"/>
<path d="M192.709 225.137H100.44C98.2222 225.137 96.4226 226.936 96.4226 229.154V253.26C96.4226 255.478 98.2222 257.278 100.44 257.278H201.508C202.575 257.278 203.601 256.859 204.354 256.096L256.122 204.326C256.876 203.573 257.294 202.548 257.294 201.48V100.432C257.294 98.2136 255.495 96.4141 253.277 96.4141H229.171C226.953 96.4141 225.153 98.2136 225.153 100.432V192.681C225.153 196.26 220.822 198.049 218.29 195.527L122.014 99.2495C120.445 97.6801 117.902 97.6801 116.333 99.2495L99.2789 116.304C97.7095 117.873 97.7095 120.415 99.2789 121.985L195.555 218.263C198.087 220.794 196.298 225.126 192.709 225.126" fill="white" fill-opacity="0.11"/>
<path d="M192.709 385.854H100.44C98.2222 385.854 96.4226 384.054 96.4226 381.836V357.73C96.4226 355.512 98.2222 353.712 100.44 353.712H201.508C202.575 353.712 203.601 354.141 204.354 354.895L256.122 406.664C256.876 407.417 257.294 408.443 257.294 409.499V510.548C257.294 512.766 255.495 514.566 253.277 514.566H229.171C226.953 514.566 225.153 512.766 225.153 510.548V418.299C225.153 414.72 220.822 412.921 218.29 415.463L122.014 511.741C120.445 513.31 117.902 513.31 116.333 511.741L99.2789 494.687C97.7095 493.117 97.7095 490.575 99.2789 489.005L195.555 392.728C198.087 390.196 196.298 385.864 192.709 385.864" fill="white" fill-opacity="0.11"/>
<path d="M418.301 385.854H510.57C512.788 385.854 514.588 384.054 514.588 381.836V357.73C514.588 355.512 512.788 353.712 510.57 353.712H409.502C408.435 353.712 407.42 354.141 406.667 354.895L354.899 406.664C354.145 407.417 353.727 408.443 353.727 409.499V510.548C353.727 512.766 355.526 514.566 357.744 514.566H381.85C384.068 514.566 385.868 512.766 385.868 510.548V418.299C385.868 414.72 390.199 412.921 392.731 415.463L489.007 511.741C490.576 513.31 493.119 513.31 494.688 511.741L511.753 494.687C513.322 493.117 513.322 490.575 511.753 489.005L415.477 392.728C412.945 390.196 414.734 385.864 418.312 385.864" fill="white" fill-opacity="0.11"/>
</svg>
